<?xml version="1.0" encoding="UTF-8" standalone="no"?>
<!DOCTYPE svg PUBLIC "-//W3C//DTD SVG 1.1//EN" "http://www.w3.org/Graphics/SVG/1.1/DTD/svg11.dtd">
<!-- Generiert durch Microsoft Visio, SVG Export automation-fear-spiral.svg Zeichenblatt-1 -->
<svg xmlns="http://www.w3.org/2000/svg" xmlns:xlink="http://www.w3.org/1999/xlink" xmlns:ev="http://www.w3.org/2001/xml-events"
		xmlns:v="http://schemas.microsoft.com/visio/2003/SVGExtensions/" width="6.15215in" height="2.9238in"
		viewBox="0 0 442.955 210.514" xml:space="preserve" color-interpolation-filters="sRGB" class="st9">
	<v:documentProperties v:langID="1031" v:viewMarkup="false"/>

	<style type="text/css">
	<![CDATA[
		.st1 {fill:none;stroke:none;stroke-linecap:round;stroke-linejoin:round;stroke-width:0.75}
		.st2 {fill:#000000;font-family:Calibri;font-size:3.33334em;font-weight:bold}
		.st3 {fill:#bfbfbf;stroke:#000000;stroke-linecap:round;stroke-linejoin:round;stroke-width:0.75}
		.st4 {fill:#d8d8d8;stroke:#000000;stroke-linecap:round;stroke-linejoin:round;stroke-width:0.75}
		.st5 {fill:#ffffff;font-family:Calibri;font-size:3.75em;font-weight:bold}
		.st6 {marker-end:url(#mrkr4-26);stroke:#000000;stroke-linecap:round;stroke-linejoin:round;stroke-width:2}
		.st7 {fill:#000000;fill-opacity:1;stroke:#000000;stroke-opacity:1;stroke-width:0.44247787610619}
		.st8 {fill:#000000;font-family:Calibri;font-size:1.00001em}
		.st9 {fill:none;fill-rule:evenodd;font-size:12px;overflow:visible;stroke-linecap:square;stroke-miterlimit:3}
	]]>
	</style>

	<defs id="Markers">
		<g id="lend4">
			<path d="M 2 1 L 0 0 L 2 -1 L 2 1 " style="stroke:none"/>
		</g>
		<marker id="mrkr4-26" class="st7" v:arrowType="4" v:arrowSize="2" v:setback="4.34" refX="-4.34" orient="auto"
				markerUnits="strokeWidth" overflow="visible">
			<use xlink:href="#lend4" transform="scale(-2.26,-2.26) "/>
		</marker>
	</defs>
	<g v:mID="0" v:index="1" v:groupContext="foregroundPage">
		<title>Zeichenblatt-1</title>
		<v:pageProperties v:drawingScale="0.0393701" v:pageScale="0.0393701" v:drawingUnits="24" v:shadowOffsetX="8.50394"
				v:shadowOffsetY="-8.50394"/>
		<g id="shape16-1" v:mID="16" v:groupContext="shape" transform="translate(147.777,-102.422)">
			<title>Tabelle.16</title>
			<desc>FEAR</desc>
			<v:textBlock v:margins="rect(4,4,4,4)" v:tabSpace="42.5197"/>
			<v:textRect cx="56.6929" cy="185.002" width="113.39" height="51.0236"/>
			<rect x="0" y="159.49" width="113.386" height="51.0236" class="st1"/>
			<text x="14.38" y="197" class="st2" v:langID="1033"><v:paragraph v:horizAlign="1"/><v:tabList/>FEAR</text>		</g>
		<g id="shape24-4" v:mID="24" v:groupContext="shape" transform="translate(187.546,-61.9354)">
			<title>Tabelle.24</title>
			<path d="M16.92 210.51 A56.6929 56.6929 -180 0 0 33.85 173.11 A56.6929 56.6929 0 0 1 0 173.11 A56.6929 56.6929 -180 0
						 0 16.92 210.51 Z" class="st3"/>
		</g>
		<g id="shape25-6" v:mID="25" v:groupContext="shape" transform="translate(108.092,-45.7293)">
			<title>Tabelle.25</title>
			<path d="M96.38 194.31 A56.6929 56.6929 0 0 1 79.45 156.91 A56.6929 56.6929 0 0 1 39.69 102.8 A56.6929 56.6929 0 0 1
						 39.77 99.71 A56.6929 56.6929 -180 0 0 0 153.82 A56.6929 56.6929 -180 0 0 96.38 194.31 Z" class="st4"/>
		</g>
		<g id="shape26-8" v:mID="26" v:groupContext="shape" transform="translate(147.777,-99.3379)">
			<title>Tabelle.26</title>
			<path d="M56.69 166.94 A56.6929 56.6929 -180 0 0 0.08 153.32 A56.6929 56.6929 -180 0 0 -0 156.41 A56.6929 56.6929 -180
						 0 0 39.77 210.51 A56.6929 56.6929 0 0 1 39.69 207.43 A56.6929 56.6929 0 0 1 56.69 166.94 Z" class="st3"/>
		</g>
		<g id="shape27-10" v:mID="27" v:groupContext="shape" transform="translate(187.462,-96.753)">
			<title>Tabelle.27</title>
			<path d="M17.01 164.36 A56.6929 56.6929 -180 0 0 0 204.84 A56.6929 56.6929 -180 0 0 0.08 207.93 A56.6929 56.6929 -180
						 0 0 33.93 207.93 A56.6929 56.6929 -180 0 0 34.02 204.84 A56.6929 56.6929 -180 0 0 17.01 164.36 Z"
					class="st3"/>
		</g>
		<g id="shape28-12" v:mID="28" v:groupContext="shape" transform="translate(147.861,-142.909)">
			<title>Tabelle.28</title>
			<path d="M113.22 196.89 A56.6929 56.6929 -180 0 0 -0 196.89 A56.6929 56.6929 0 0 1 56.61 210.51 A56.6929 56.6929 0 0
						 1 113.22 196.89 Z" class="st4"/>
		</g>
		<g id="shape29-14" v:mID="29" v:groupContext="shape" transform="translate(204.469,-99.3379)">
			<title>Tabelle.29</title>
			<path d="M56.61 153.32 A56.6929 56.6929 -180 0 0 -0 166.94 A56.6929 56.6929 0 0 1 17.01 207.43 A56.6929 56.6929 0 0 1
						 16.92 210.51 A56.6929 56.6929 -180 0 0 56.69 156.41 A56.6929 56.6929 -180 0 0 56.61 153.32 Z" class="st3"/>
		</g>
		<g id="shape30-16" v:mID="30" v:groupContext="shape" transform="translate(204.469,-45.7293)">
			<title>Tabelle.30</title>
			<path d="M56.61 99.71 A56.6929 56.6929 0 0 1 56.69 102.8 A56.6929 56.6929 0 0 1 16.92 156.91 A56.6929 56.6929 0 0 1 0
						 194.31 A56.6929 56.6929 -180 0 0 96.38 153.82 A56.6929 56.6929 -180 0 0 56.61 99.71 Z" class="st4"/>
		</g>
		<g id="shape31-18" v:mID="31" v:groupContext="shape" transform="translate(136.438,-96.753)">
			<title>Tabelle.31</title>
			<desc>FEAR !</desc>
			<v:textBlock v:margins="rect(4,4,4,4)" v:tabSpace="42.5197"/>
			<v:textRect cx="68.0315" cy="179.333" width="136.07" height="62.3622"/>
			<rect x="0" y="148.152" width="136.063" height="62.3622" class="st1"/>
			<text x="8.01" y="192.83" class="st5" v:langID="1033"><v:paragraph v:horizAlign="1"/><v:tabList/>FEAR !</text>		</g>
		<g id="shape36-21" v:mID="36" v:groupContext="shape" transform="translate(432.465,-99.3065) rotate(54.4623)">
			<title>Tabelle.36</title>
			<path d="M-0 210.51 A34.485 34.0157 0 0 1 41.55 205.07 L41.84 205.28" class="st6"/>
		</g>
		<g id="shape37-27" v:mID="37" v:groupContext="shape" transform="translate(227.147,380.968) rotate(180)">
			<title>Tabelle.37</title>
			<path d="M-0 210.51 A36.0792 34.0157 0 0 1 43.71 205.2 L44 205.41" class="st6"/>
		</g>
		<g id="shape38-32" v:mID="38" v:groupContext="shape" transform="translate(-51.872,-59.6214) rotate(-54.4623)">
			<title>Tabelle.38</title>
			<path d="M0 210.51 A34.485 34.0157 0 0 1 41.55 205.07 L41.84 205.28" class="st6"/>
		</g>
		<g id="shape41-37" v:mID="41" v:groupContext="shape" transform="translate(289.509,-165.185)">
			<title>Tabelle.41</title>
			<desc>The system requires changes</desc>
			<v:textBlock v:margins="rect(4,4,4,4)" v:tabSpace="42.5197"/>
			<v:textRect cx="76.5354" cy="199.175" width="153.08" height="22.6772"/>
			<rect x="0" y="187.837" width="153.071" height="22.6772" class="st1"/>
			<text x="4" y="202.78" class="st8" v:langID="1033"><v:paragraph/><v:tabList/>The system requires changes</text>		</g>
		<g id="shape42-40" v:mID="42" v:groupContext="shape" transform="translate(118.013,-0.375)">
			<title>Tabelle.42</title>
			<desc>I’m afraid of my automation tool</desc>
			<v:textBlock v:margins="rect(4,4,4,4)" v:tabSpace="42.5197"/>
			<v:textRect cx="86.4567" cy="199.175" width="172.92" height="22.6772"/>
			<rect x="0" y="187.837" width="172.913" height="22.6772" class="st1"/>
			<text x="4" y="202.78" class="st8" v:langID="1033"><v:paragraph/><v:tabList/>I’m afraid of my automation tool</text>		</g>
		<g id="shape43-43" v:mID="43" v:groupContext="shape" transform="translate(0.375,-165.185)">
			<title>Tabelle.43</title>
			<desc>Apply changes outside</desc>
			<v:textBlock v:margins="rect(4,4,4,4)" v:tabSpace="42.5197"/>
			<v:textRect cx="68.0315" cy="199.175" width="136.07" height="22.6772"/>
			<rect x="0" y="187.837" width="136.063" height="22.6772" class="st1"/>
			<text x="4" y="202.78" class="st8" v:langID="1033"><v:paragraph/><v:tabList/>Apply changes outside  </text>		</g>
		<g id="shape44-46" v:mID="44" v:groupContext="shape" transform="translate(0.375,-149.519)">
			<title>Tabelle.44</title>
			<desc>of the automation tool</desc>
			<v:textBlock v:margins="rect(4,4,4,4)" v:tabSpace="42.5197"/>
			<v:textRect cx="62.3622" cy="199.175" width="124.73" height="22.6772"/>
			<rect x="0" y="187.837" width="124.724" height="22.6772" class="st1"/>
			<text x="4" y="202.78" class="st8" v:langID="1033"><v:paragraph/><v:tabList/>of the automation tool</text>		</g>
	</g>
</svg>
